<svg xmlns="http://www.w3.org/2000/svg" xmlns:oryx="http://oryx-editor.org" id="_51254455-3BC6-45B0-B64F-EE1CAC163D8A" width="434" height="469" xmlns:xlink="http://www.w3.org/1999/xlink" xmlns:svg="http://www.w3.org/2000/svg"><defs/><g stroke="none" font-family="Verdana, sans-serif" font-size-adjust="none" font-style="normal" font-variant="normal" font-weight="normal" line-heigth="normal" font-size="12"><g class="stencils" transform="translate(15, 16)"><g class="me"/><g class="children"><g id="_CF6F771E-4456-4174-AA6C-4EDD3F38C08A" bpmn2nodeid="_FF228709-9B10-41DC-8DD8-2E2D95651D9F"><g class="stencils" transform="translate(266, 173)"><g class="me"><g pointer-events="fill" oryx:minimumSize="50 40" id="_CF6F771E-4456-4174-AA6C-4EDD3F38C08A">   	<defs id="_CF6F771E-4456-4174-AA6C-4EDD3F38C08A__CF6F771E-4456-4174-AA6C-4EDD3F38C08A_17"> 		<radialGradient id="_CF6F771E-4456-4174-AA6C-4EDD3F38C08Abackground" cx="10%" cy="10%" r="100%" fx="10%" fy="10%"> 			<stop offset="0%" stop-color="#ffffff" stop-opacity="1" id="_CF6F771E-4456-4174-AA6C-4EDD3F38C08A__CF6F771E-4456-4174-AA6C-4EDD3F38C08A_18"/> 			<stop id="_CF6F771E-4456-4174-AA6C-4EDD3F38C08Afill_el" offset="100%" stop-color="#fafad2" stop-opacity="1"/> 		</radialGradient> 		<radialGradient id="_CF6F771E-4456-4174-AA6C-4EDD3F38C08Aborderbackground" cx="10%" cy="10%" r="100%" fx="10%" fy="10%"> 			<stop offset="0%" stop-color="#ffffff" stop-opacity="1" id="_CF6F771E-4456-4174-AA6C-4EDD3F38C08A__CF6F771E-4456-4174-AA6C-4EDD3F38C08A_19"/> 			<stop id="_CF6F771E-4456-4174-AA6C-4EDD3F38C08Afill_border" offset="100%" stop-color="#000000" stop-opacity="1" stroke="#000000"/> 		</radialGradient> 	</defs> 	 	<rect id="_CF6F771E-4456-4174-AA6C-4EDD3F38C08Atext_frame" oryx:anchors="bottom top right left" x="1" y="1" width="116" height="90" rx="10" ry="10" stroke="none" stroke-width="0" fill="none"/> 	<rect id="_CF6F771E-4456-4174-AA6C-4EDD3F38C08Abg_frame" oryx:resize="vertical horizontal" x="0" y="0" width="122" height="91" rx="10" ry="10" stroke="#000000" stroke-width="1" fill="url(#_CF6F771E-4456-4174-AA6C-4EDD3F38C08Abackground) #ffffcc"/> 		<text font-size="12" id="_CF6F771E-4456-4174-AA6C-4EDD3F38C08Atext_name" x="61" y="45.5" oryx:align="middle center" oryx:fittoelem="text_frame" stroke="black" text-anchor="middle" stroke-width="0pt" letter-spacing="-0.01px" fill="#000000" transform="rotate(0 61 45.5)" visibility="inherit" oryx:fontSize="12"><tspan x="61" y="45.5" dy="5">Dynamic User Task</tspan></text>     <g id="_CF6F771E-4456-4174-AA6C-4EDD3F38C08AmanualTask" transform="scale(0.7,0.7) translate(8,8)" display="none">     	<path oryx:anchors="top left" id="_CF6F771E-4456-4174-AA6C-4EDD3F38C08Aframe" style="opacity:1;fill:none;fill-opacity:1;stroke-width:1" d="M0.5,3.751l4.083-3.25c0,0,11.166,0.083,12.083,0.083s-2.417,2.917-1.5,2.917     s11.667,0,12.584,0c1.166,1.708-0.168,3.167-0.834,3.667s0.875,1.917-1,4.417c-0.75,0.25,0.75,1.875-1.333,3.333     c-1.167,0.583,0.583,1.542-1.25,2.833c-1.167,0-20.833,0.083-20.833,0.083l-2-1.333V3.751z" stroke="#000000"/> 		<path id="_CF6F771E-4456-4174-AA6C-4EDD3F38C08Aframe2" oryx:anchors="top left" style="opacity:1;fill:none;stroke-width:2" d="M 13.5 7 L 27 7" stroke="#000000"/> 		<path id="_CF6F771E-4456-4174-AA6C-4EDD3F38C08Aframe3" oryx:anchors="top left" style="opacity:1;fill:none;stroke-width:2" d="M 13.5 11 L 26 11" stroke="#000000"/> 		<path id="_CF6F771E-4456-4174-AA6C-4EDD3F38C08Aframe4" oryx:anchors="top left" style="opacity:1;fill:none;stroke-width:1.5" d="M 14 14.5 L 25 14.5" stroke="#000000"/> 		<path id="_CF6F771E-4456-4174-AA6C-4EDD3F38C08Aframe5" oryx:anchors="top left" style="opacity:1;fill:none;stroke-width:1.5" d="M 8.2 3.1 L 15 3.1" stroke="#000000"/> 	</g> 	 	<g id="_CF6F771E-4456-4174-AA6C-4EDD3F38C08AbusinessRuleTask" transform="scale(0.7,0.7) translate(8,8)" display="none"> 		<rect id="_CF6F771E-4456-4174-AA6C-4EDD3F38C08Aframe6" oryx:anchors="top left" x="0" y="0" width="22" height="4" style="opacity:1;fill:#B3B1B3;fill-opacity:1;" stroke="#000000"/> 		<rect id="_CF6F771E-4456-4174-AA6C-4EDD3F38C08Aframe7" oryx:anchors="top left" x="0" y="4" style="opacity:1;fill:none;" width="22" height="12" stroke="#000000"/> 		<path id="_CF6F771E-4456-4174-AA6C-4EDD3F38C08Aframe8" oryx:anchors="top left" style="opacity:1;fill:none;" d="M 0 10 L 22 10" stroke="#000000"/> 		<path id="_CF6F771E-4456-4174-AA6C-4EDD3F38C08Aframe9" oryx:anchors="top left" style="opacity:1; fill:none;" d="M 7 4 L 7 16" stroke="#000000"/> 	</g> 	 	<g id="_CF6F771E-4456-4174-AA6C-4EDD3F38C08AscriptTask" transform="scale(0.7,0.7) translate(8,8)" display="none"> 		<path oryx:anchors="top left" id="_CF6F771E-4456-4174-AA6C-4EDD3F38C08Aframe10" style="opacity:1;fill:none;" stroke="#000000" d="M6.402,0.5h14.5c0,0-5.833,2.833-5.833,5.583s4.417,6,4.417,9.167    s-4.167,5.083-4.167,5.083H0.235c0,0,5-2.667,5-5s-4.583-6.75-4.583-9.25S6.402,0.5,6.402,0.5z"/> 		<path oryx:anchors="top left" id="_CF6F771E-4456-4174-AA6C-4EDD3F38C08Aframe11" style="opacity:1;fill:none;stroke-width:1.5" d="M 3.5 4.5 L 13.5 4.5" stroke="#000000"/> 		<path oryx:anchors="top left" id="_CF6F771E-4456-4174-AA6C-4EDD3F38C08Aframe12" style="opacity:1;fill:none;stroke-width:1.5" d="M 3.8 8.5 L 13.8 8.5" stroke="#000000"/> 		<path oryx:anchors="top left" id="_CF6F771E-4456-4174-AA6C-4EDD3F38C08Aframe13" style="opacity:1;fill:none;stroke-width:1.5" d="M 6.3 12.5 L 16.3 12.5" stroke="#000000"/> 		<path oryx:anchors="top left" id="_CF6F771E-4456-4174-AA6C-4EDD3F38C08Aframe14" style="opacity:1;fill:none;stroke-width:1.5" d="M 6.5 16.5 L 16.5 16.5" stroke="#000000"/> 	</g> 	 	<g id="_CF6F771E-4456-4174-AA6C-4EDD3F38C08AuserTask" transform="scale(0.7,0.7) translate(8,8)" display="inherit"> 		<path id="_CF6F771E-4456-4174-AA6C-4EDD3F38C08Aframe15" oryx:anchors="top left" style="opacity:1;fill:#F4F6F7" stroke="#000000" d="M0.585,24.167h24.083v-7.833c0,0-2.333-3.917-7.083-5.167h-9.25    c-4.417,1.333-7.833,5.75-7.833,5.75L0.585,24.167z"/> 		<path id="_CF6F771E-4456-4174-AA6C-4EDD3F38C08Aframe16" oryx:anchors="top left" style="opacity:1;fill:none" d="M 6 20 L 6 24" stroke="#000000"/> 		<path id="_CF6F771E-4456-4174-AA6C-4EDD3F38C08Aframe17" oryx:anchors="top left" style="opacity:1;fill:none" d="M 20 20 L 20 24" stroke="#000000"/> 		<circle id="_CF6F771E-4456-4174-AA6C-4EDD3F38C08Aframe18" oryx:anchors="top left" fill="black" cx="13.002" cy="5.916" r="5.417" stroke="#000000"/> 		<path id="_CF6F771E-4456-4174-AA6C-4EDD3F38C08Aframe19" oryx:anchors="top left" style="opacity:1;fill:#F0EFF0;" stroke="#000000" d="M8.043,7.083c0,0,2.814-2.426,5.376-1.807s4.624-0.693,4.624-0.693    c0.25,1.688,0.042,3.75-1.458,5.584c0,0,1.083,0.75,1.083,1.5s0.125,1.875-1,3s-5.5,1.25-6.75,0S8.668,12.834,8.668,12    s0.583-1.25,1.25-1.917C8.835,9.5,7.419,7.708,8.043,7.083z"/> 	</g> 	 	<g id="_CF6F771E-4456-4174-AA6C-4EDD3F38C08AserviceTask" transform="scale(0.7,0.7) translate(8,8)" display="none"> 		<polygon oryx:anchors="top left" id="_CF6F771E-4456-4174-AA6C-4EDD3F38C08Aframe20" style="opacity:1;fill:#ffffff" stroke="#000000" points="15.392,5.064 17.954,2.502 20.347,4.895 17.786,7.455     18.729,9.732 22.353,9.732 22.353,13.115 18.731,13.115 17.788,15.392 20.351,17.955 17.958,20.347 15.397,17.786 13.12,18.729     13.12,22.353 9.737,22.353 9.737,18.731 7.46,17.788 4.897,20.35 2.506,17.958 5.066,15.397 4.124,13.12 0.5,13.12 0.5,9.737     4.121,9.737 5.065,7.461 2.503,4.898 4.895,2.506 7.455,5.066 9.732,4.125 9.732,0.5 13.116,0.5 13.116,4.121 "/> 		<circle oryx:anchors="top left" id="_CF6F771E-4456-4174-AA6C-4EDD3F38C08Aframe21" style="opacity:1;fill:none" stroke="#000000" cx="11.427" cy="11.426" r="3.714"/> 		<polygon oryx:anchors="top left" id="_CF6F771E-4456-4174-AA6C-4EDD3F38C08Aframe22" style="opacity:1;fill:#ffffff" stroke="#000000" points="21.392,11.064 23.954,8.502 26.347,10.895 23.786,13.455     24.729,15.732 28.353,15.732 28.353,19.115 24.731,19.115 23.788,21.392 26.351,23.955 23.958,26.347 21.397,23.786 19.12,24.729     19.12,28.353 15.737,28.353 15.737,24.731 13.46,23.788 10.897,26.35 8.506,23.958 11.066,21.397 10.124,19.12 6.5,19.12     6.5,15.737 10.121,15.737 11.065,13.461 8.503,10.898 10.895,8.506 13.455,11.066 15.732,10.125 15.732,6.5 19.116,6.5     19.116,10.121 "/> 		<circle oryx:anchors="top left" id="_CF6F771E-4456-4174-AA6C-4EDD3F38C08Aframe23" style="opacity:1;fill:none;" stroke="#000000" cx="17.427" cy="17.426" r="3.714"/> 	</g> 	 	<g id="_CF6F771E-4456-4174-AA6C-4EDD3F38C08AsendTask" display="none"> 		<path id="_CF6F771E-4456-4174-AA6C-4EDD3F38C08Astframe24" oryx:anchors="left top" stroke="#FFFFFF" fill="black" stroke-width="1" d="M8,11 L8,21 L24,21 L24,11 L16,17z"/> 		<path id="_CF6F771E-4456-4174-AA6C-4EDD3F38C08Astframe25" oryx:anchors="left top" stroke="#FFFFFF" fill="black" stroke-width="1" d="M7,10 L16,17 L25 10z"/> 	</g> 	 	<g id="_CF6F771E-4456-4174-AA6C-4EDD3F38C08AreceiveTask" display="none"> 		<path id="_CF6F771E-4456-4174-AA6C-4EDD3F38C08Aframe26" oryx:anchors="left top" stroke="#000000" fill="none" stroke-width="1" d="M8,11 L8,21 L24,21 L24,11z M8,11 L16,17 L24,11"/> 	</g> 	 	<g id="_CF6F771E-4456-4174-AA6C-4EDD3F38C08Anone" display="inherit"/>  	<g id="_CF6F771E-4456-4174-AA6C-4EDD3F38C08Asequential" display="none">         <path oryx:anchors="bottom" fill="none" stroke="#000000" stroke-width="2" d=" M57.22 87  h10  M57.22 83  h10  M57.22 79  h10 " id="_CF6F771E-4456-4174-AA6C-4EDD3F38C08A__CF6F771E-4456-4174-AA6C-4EDD3F38C08A_20"/>     </g>   </g></g><g class="children" style="overflow:hidden"/><g class="edge"/></g><g class="controls"><g class="dockers"/><g class="magnets" transform="translate(266, 173)"><g pointer-events="all" display="none" transform="translate(-7, 14.75)"><circle cx="8" cy="8" r="4" stroke="none" fill="red" fill-opacity="0.3"/></g><g pointer-events="all" display="none" transform="translate(-7, 37.5)"><circle cx="8" cy="8" r="4" stroke="none" fill="red" fill-opacity="0.3"/></g><g pointer-events="all" display="none" transform="translate(-7, 60.25)"><circle cx="8" cy="8" r="4" stroke="none" fill="red" fill-opacity="0.3"/></g><g pointer-events="all" display="none" transform="translate(22.5, 82)"><circle cx="8" cy="8" r="4" stroke="none" fill="red" fill-opacity="0.3"/></g><g pointer-events="all" display="none" transform="translate(53, 82)"><circle cx="8" cy="8" r="4" stroke="none" fill="red" fill-opacity="0.3"/></g><g pointer-events="all" display="none" transform="translate(83.5, 82)"><circle cx="8" cy="8" r="4" stroke="none" fill="red" fill-opacity="0.3"/></g><g pointer-events="all" display="none" transform="translate(113, 14.75)"><circle cx="8" cy="8" r="4" stroke="none" fill="red" fill-opacity="0.3"/></g><g pointer-events="all" display="none" transform="translate(113, 37.5)"><circle cx="8" cy="8" r="4" stroke="none" fill="red" fill-opacity="0.3"/></g><g pointer-events="all" display="none" transform="translate(113, 60.25)"><circle cx="8" cy="8" r="4" stroke="none" fill="red" fill-opacity="0.3"/></g><g pointer-events="all" display="none" transform="translate(22.5, -7)"><circle cx="8" cy="8" r="4" stroke="none" fill="red" fill-opacity="0.3"/></g><g pointer-events="all" display="none" transform="translate(53, -7)"><circle cx="8" cy="8" r="4" stroke="none" fill="red" fill-opacity="0.3"/></g><g pointer-events="all" display="none" transform="translate(83.5, -7)"><circle cx="8" cy="8" r="4" stroke="none" fill="red" fill-opacity="0.3"/></g><g pointer-events="all" display="none" transform="translate(53, 37.5)"><circle cx="8" cy="8" r="4" stroke="none" fill="red" fill-opacity="0.3"/></g></g></g></g><g id="_EBCFFAA5-16D7-45E1-A13F-FBB7FEBE1A1C" bpmn2nodeid="_1D0836F6-7BFB-4063-A942-A46F4B17F8EB"><g class="stencils" transform="translate(270, 330)"><g class="me"><g pointer-events="fill" oryx:minimumSize="50 40" id="_EBCFFAA5-16D7-45E1-A13F-FBB7FEBE1A1C">   	<defs id="_EBCFFAA5-16D7-45E1-A13F-FBB7FEBE1A1C__EBCFFAA5-16D7-45E1-A13F-FBB7FEBE1A1C_17"> 		<radialGradient id="_EBCFFAA5-16D7-45E1-A13F-FBB7FEBE1A1Cbackground" cx="10%" cy="10%" r="100%" fx="10%" fy="10%"> 			<stop offset="0%" stop-color="#ffffff" stop-opacity="1" id="_EBCFFAA5-16D7-45E1-A13F-FBB7FEBE1A1C__EBCFFAA5-16D7-45E1-A13F-FBB7FEBE1A1C_18"/> 			<stop id="_EBCFFAA5-16D7-45E1-A13F-FBB7FEBE1A1Cfill_el" offset="100%" stop-color="#fafad2" stop-opacity="1"/> 		</radialGradient> 		<radialGradient id="_EBCFFAA5-16D7-45E1-A13F-FBB7FEBE1A1Cborderbackground" cx="10%" cy="10%" r="100%" fx="10%" fy="10%"> 			<stop offset="0%" stop-color="#ffffff" stop-opacity="1" id="_EBCFFAA5-16D7-45E1-A13F-FBB7FEBE1A1C__EBCFFAA5-16D7-45E1-A13F-FBB7FEBE1A1C_19"/> 			<stop id="_EBCFFAA5-16D7-45E1-A13F-FBB7FEBE1A1Cfill_border" offset="100%" stop-color="#000000" stop-opacity="1" stroke="#000000"/> 		</radialGradient> 	</defs> 	 	<rect id="_EBCFFAA5-16D7-45E1-A13F-FBB7FEBE1A1Ctext_frame" oryx:anchors="bottom top right left" x="1" y="1" width="118" height="97" rx="10" ry="10" stroke="none" stroke-width="0" fill="none"/> 	<rect id="_EBCFFAA5-16D7-45E1-A13F-FBB7FEBE1A1Cbg_frame" oryx:resize="vertical horizontal" x="0" y="0" width="124" height="98" rx="10" ry="10" stroke="#000000" stroke-width="1" fill="url(#_EBCFFAA5-16D7-45E1-A13F-FBB7FEBE1A1Cbackground) #ffffcc"/> 		<text font-size="12" id="_EBCFFAA5-16D7-45E1-A13F-FBB7FEBE1A1Ctext_name" x="62" y="49" oryx:align="middle center" oryx:fittoelem="text_frame" stroke="black" text-anchor="middle" stroke-width="0pt" letter-spacing="-0.01px" fill="#000000" transform="rotate(0 62 49)" visibility="inherit" oryx:fontSize="12"><tspan x="62" y="49" dy="-7">Another task that </tspan><tspan x="62" y="49" dy="5">is started </tspan><tspan x="62" y="49" dy="17" id="ext-gen805">automatically</tspan></text>     <g id="_EBCFFAA5-16D7-45E1-A13F-FBB7FEBE1A1CmanualTask" transform="scale(0.7,0.7) translate(8,8)" display="none">     	<path oryx:anchors="top left" id="_EBCFFAA5-16D7-45E1-A13F-FBB7FEBE1A1Cframe" style="opacity:1;fill:none;fill-opacity:1;stroke-width:1" d="M0.5,3.751l4.083-3.25c0,0,11.166,0.083,12.083,0.083s-2.417,2.917-1.5,2.917     s11.667,0,12.584,0c1.166,1.708-0.168,3.167-0.834,3.667s0.875,1.917-1,4.417c-0.75,0.25,0.75,1.875-1.333,3.333     c-1.167,0.583,0.583,1.542-1.25,2.833c-1.167,0-20.833,0.083-20.833,0.083l-2-1.333V3.751z" stroke="#000000"/> 		<path id="_EBCFFAA5-16D7-45E1-A13F-FBB7FEBE1A1Cframe2" oryx:anchors="top left" style="opacity:1;fill:none;stroke-width:2" d="M 13.5 7 L 27 7" stroke="#000000"/> 		<path id="_EBCFFAA5-16D7-45E1-A13F-FBB7FEBE1A1Cframe3" oryx:anchors="top left" style="opacity:1;fill:none;stroke-width:2" d="M 13.5 11 L 26 11" stroke="#000000"/> 		<path id="_EBCFFAA5-16D7-45E1-A13F-FBB7FEBE1A1Cframe4" oryx:anchors="top left" style="opacity:1;fill:none;stroke-width:1.5" d="M 14 14.5 L 25 14.5" stroke="#000000"/> 		<path id="_EBCFFAA5-16D7-45E1-A13F-FBB7FEBE1A1Cframe5" oryx:anchors="top left" style="opacity:1;fill:none;stroke-width:1.5" d="M 8.2 3.1 L 15 3.1" stroke="#000000"/> 	</g> 	 	<g id="_EBCFFAA5-16D7-45E1-A13F-FBB7FEBE1A1CbusinessRuleTask" transform="scale(0.7,0.7) translate(8,8)" display="none"> 		<rect id="_EBCFFAA5-16D7-45E1-A13F-FBB7FEBE1A1Cframe6" oryx:anchors="top left" x="0" y="0" width="22" height="4" style="opacity:1;fill:#B3B1B3;fill-opacity:1;" stroke="#000000"/> 		<rect id="_EBCFFAA5-16D7-45E1-A13F-FBB7FEBE1A1Cframe7" oryx:anchors="top left" x="0" y="4" style="opacity:1;fill:none;" width="22" height="12" stroke="#000000"/> 		<path id="_EBCFFAA5-16D7-45E1-A13F-FBB7FEBE1A1Cframe8" oryx:anchors="top left" style="opacity:1;fill:none;" d="M 0 10 L 22 10" stroke="#000000"/> 		<path id="_EBCFFAA5-16D7-45E1-A13F-FBB7FEBE1A1Cframe9" oryx:anchors="top left" style="opacity:1; fill:none;" d="M 7 4 L 7 16" stroke="#000000"/> 	</g> 	 	<g id="_EBCFFAA5-16D7-45E1-A13F-FBB7FEBE1A1CscriptTask" transform="scale(0.7,0.7) translate(8,8)" display="none"> 		<path oryx:anchors="top left" id="_EBCFFAA5-16D7-45E1-A13F-FBB7FEBE1A1Cframe10" style="opacity:1;fill:none;" stroke="#000000" d="M6.402,0.5h14.5c0,0-5.833,2.833-5.833,5.583s4.417,6,4.417,9.167    s-4.167,5.083-4.167,5.083H0.235c0,0,5-2.667,5-5s-4.583-6.75-4.583-9.25S6.402,0.5,6.402,0.5z"/> 		<path oryx:anchors="top left" id="_EBCFFAA5-16D7-45E1-A13F-FBB7FEBE1A1Cframe11" style="opacity:1;fill:none;stroke-width:1.5" d="M 3.5 4.5 L 13.5 4.5" stroke="#000000"/> 		<path oryx:anchors="top left" id="_EBCFFAA5-16D7-45E1-A13F-FBB7FEBE1A1Cframe12" style="opacity:1;fill:none;stroke-width:1.5" d="M 3.8 8.5 L 13.8 8.5" stroke="#000000"/> 		<path oryx:anchors="top left" id="_EBCFFAA5-16D7-45E1-A13F-FBB7FEBE1A1Cframe13" style="opacity:1;fill:none;stroke-width:1.5" d="M 6.3 12.5 L 16.3 12.5" stroke="#000000"/> 		<path oryx:anchors="top left" id="_EBCFFAA5-16D7-45E1-A13F-FBB7FEBE1A1Cframe14" style="opacity:1;fill:none;stroke-width:1.5" d="M 6.5 16.5 L 16.5 16.5" stroke="#000000"/> 	</g> 	 	<g id="_EBCFFAA5-16D7-45E1-A13F-FBB7FEBE1A1CuserTask" transform="scale(0.7,0.7) translate(8,8)" display="inherit"> 		<path id="_EBCFFAA5-16D7-45E1-A13F-FBB7FEBE1A1Cframe15" oryx:anchors="top left" style="opacity:1;fill:#F4F6F7" stroke="#000000" d="M0.585,24.167h24.083v-7.833c0,0-2.333-3.917-7.083-5.167h-9.25    c-4.417,1.333-7.833,5.75-7.833,5.75L0.585,24.167z"/> 		<path id="_EBCFFAA5-16D7-45E1-A13F-FBB7FEBE1A1Cframe16" oryx:anchors="top left" style="opacity:1;fill:none" d="M 6 20 L 6 24" stroke="#000000"/> 		<path id="_EBCFFAA5-16D7-45E1-A13F-FBB7FEBE1A1Cframe17" oryx:anchors="top left" style="opacity:1;fill:none" d="M 20 20 L 20 24" stroke="#000000"/> 		<circle id="_EBCFFAA5-16D7-45E1-A13F-FBB7FEBE1A1Cframe18" oryx:anchors="top left" fill="black" cx="13.002" cy="5.916" r="5.417" stroke="#000000"/> 		<path id="_EBCFFAA5-16D7-45E1-A13F-FBB7FEBE1A1Cframe19" oryx:anchors="top left" style="opacity:1;fill:#F0EFF0;" stroke="#000000" d="M8.043,7.083c0,0,2.814-2.426,5.376-1.807s4.624-0.693,4.624-0.693    c0.25,1.688,0.042,3.75-1.458,5.584c0,0,1.083,0.75,1.083,1.5s0.125,1.875-1,3s-5.5,1.25-6.75,0S8.668,12.834,8.668,12    s0.583-1.25,1.25-1.917C8.835,9.5,7.419,7.708,8.043,7.083z"/> 	</g> 	 	<g id="_EBCFFAA5-16D7-45E1-A13F-FBB7FEBE1A1CserviceTask" transform="scale(0.7,0.7) translate(8,8)" display="none"> 		<polygon oryx:anchors="top left" id="_EBCFFAA5-16D7-45E1-A13F-FBB7FEBE1A1Cframe20" style="opacity:1;fill:#ffffff" stroke="#000000" points="15.392,5.064 17.954,2.502 20.347,4.895 17.786,7.455     18.729,9.732 22.353,9.732 22.353,13.115 18.731,13.115 17.788,15.392 20.351,17.955 17.958,20.347 15.397,17.786 13.12,18.729     13.12,22.353 9.737,22.353 9.737,18.731 7.46,17.788 4.897,20.35 2.506,17.958 5.066,15.397 4.124,13.12 0.5,13.12 0.5,9.737     4.121,9.737 5.065,7.461 2.503,4.898 4.895,2.506 7.455,5.066 9.732,4.125 9.732,0.5 13.116,0.5 13.116,4.121 "/> 		<circle oryx:anchors="top left" id="_EBCFFAA5-16D7-45E1-A13F-FBB7FEBE1A1Cframe21" style="opacity:1;fill:none" stroke="#000000" cx="11.427" cy="11.426" r="3.714"/> 		<polygon oryx:anchors="top left" id="_EBCFFAA5-16D7-45E1-A13F-FBB7FEBE1A1Cframe22" style="opacity:1;fill:#ffffff" stroke="#000000" points="21.392,11.064 23.954,8.502 26.347,10.895 23.786,13.455     24.729,15.732 28.353,15.732 28.353,19.115 24.731,19.115 23.788,21.392 26.351,23.955 23.958,26.347 21.397,23.786 19.12,24.729     19.12,28.353 15.737,28.353 15.737,24.731 13.46,23.788 10.897,26.35 8.506,23.958 11.066,21.397 10.124,19.12 6.5,19.12     6.5,15.737 10.121,15.737 11.065,13.461 8.503,10.898 10.895,8.506 13.455,11.066 15.732,10.125 15.732,6.5 19.116,6.5     19.116,10.121 "/> 		<circle oryx:anchors="top left" id="_EBCFFAA5-16D7-45E1-A13F-FBB7FEBE1A1Cframe23" style="opacity:1;fill:none;" stroke="#000000" cx="17.427" cy="17.426" r="3.714"/> 	</g> 	 	<g id="_EBCFFAA5-16D7-45E1-A13F-FBB7FEBE1A1CsendTask" display="none"> 		<path id="_EBCFFAA5-16D7-45E1-A13F-FBB7FEBE1A1Cstframe24" oryx:anchors="left top" stroke="#FFFFFF" fill="black" stroke-width="1" d="M8,11 L8,21 L24,21 L24,11 L16,17z"/> 		<path id="_EBCFFAA5-16D7-45E1-A13F-FBB7FEBE1A1Cstframe25" oryx:anchors="left top" stroke="#FFFFFF" fill="black" stroke-width="1" d="M7,10 L16,17 L25 10z"/> 	</g> 	 	<g id="_EBCFFAA5-16D7-45E1-A13F-FBB7FEBE1A1CreceiveTask" display="none"> 		<path id="_EBCFFAA5-16D7-45E1-A13F-FBB7FEBE1A1Cframe26" oryx:anchors="left top" stroke="#000000" fill="none" stroke-width="1" d="M8,11 L8,21 L24,21 L24,11z M8,11 L16,17 L24,11"/> 	</g> 	 	<g id="_EBCFFAA5-16D7-45E1-A13F-FBB7FEBE1A1Cnone" display="inherit"/>  	<g id="_EBCFFAA5-16D7-45E1-A13F-FBB7FEBE1A1Csequential" display="none">         <path oryx:anchors="bottom" fill="none" stroke="#000000" stroke-width="2" d=" M58.24 94  h10  M58.24 90  h10  M58.24 86  h10 " id="_EBCFFAA5-16D7-45E1-A13F-FBB7FEBE1A1C__EBCFFAA5-16D7-45E1-A13F-FBB7FEBE1A1C_20"/>     </g>   </g></g><g class="children" style="overflow:hidden"/><g class="edge"/></g><g class="controls"><g class="dockers"/><g class="magnets" transform="translate(270, 330)"><g pointer-events="all" display="none" transform="translate(-7, 16.5)"><circle cx="8" cy="8" r="4" stroke="none" fill="red" fill-opacity="0.3"/></g><g pointer-events="all" display="none" transform="translate(-7, 41)"><circle cx="8" cy="8" r="4" stroke="none" fill="red" fill-opacity="0.3"/></g><g pointer-events="all" display="none" transform="translate(-7, 65.5)"><circle cx="8" cy="8" r="4" stroke="none" fill="red" fill-opacity="0.3"/></g><g pointer-events="all" display="none" transform="translate(23, 89)"><circle cx="8" cy="8" r="4" stroke="none" fill="red" fill-opacity="0.3"/></g><g pointer-events="all" display="none" transform="translate(54, 89)"><circle cx="8" cy="8" r="4" stroke="none" fill="red" fill-opacity="0.3"/></g><g pointer-events="all" display="none" transform="translate(85, 89)"><circle cx="8" cy="8" r="4" stroke="none" fill="red" fill-opacity="0.3"/></g><g pointer-events="all" display="none" transform="translate(115, 16.5)"><circle cx="8" cy="8" r="4" stroke="none" fill="red" fill-opacity="0.3"/></g><g pointer-events="all" display="none" transform="translate(115, 41)"><circle cx="8" cy="8" r="4" stroke="none" fill="red" fill-opacity="0.3"/></g><g pointer-events="all" display="none" transform="translate(115, 65.5)"><circle cx="8" cy="8" r="4" stroke="none" fill="red" fill-opacity="0.3"/></g><g pointer-events="all" display="none" transform="translate(23, -7)"><circle cx="8" cy="8" r="4" stroke="none" fill="red" fill-opacity="0.3"/></g><g pointer-events="all" display="none" transform="translate(54, -7)"><circle cx="8" cy="8" r="4" stroke="none" fill="red" fill-opacity="0.3"/></g><g pointer-events="all" display="none" transform="translate(85, -7)"><circle cx="8" cy="8" r="4" stroke="none" fill="red" fill-opacity="0.3"/></g><g pointer-events="all" display="none" transform="translate(54, 41)"><circle cx="8" cy="8" r="4" stroke="none" fill="red" fill-opacity="0.3"/></g></g></g></g></g><g class="edge"/><text id="_37856D80-60C5-4D4D-941D-6DFB875BFD9A" style="stroke-width:1;fill:rgb(177,194,214);font-family:arial;font-weight:bold" font-size="12" onclick="ORYX.Plugins.CanvasTitle.openTextualAnalysis()" onmouseover="ORYX.Plugins.CanvasTitle.addToolTip('_37856D80-60C5-4D4D-941D-6DFB875BFD9A')" transform="translate(10, 20)">myfirstcase v.1.0 (myfirstcase)</text></g></g></svg>